<svg id="Capa_1" enable-background="new 0 0 512 512" height="512" viewBox="0 0 512 512" width="512" xmlns="http://www.w3.org/2000/svg"><g><g><path d="m411.577 256c0 85.926-69.651 155.577-155.577 155.577l-12.362 47.988 12.362 52.435c141.389 0 256-114.611 256-256l-52.411-12.362z" fill="#fb3a82"/><path d="m256 0c-141.389 0-256 114.611-256 256l46.855 6.181 53.568-6.181c0-85.926 69.651-155.577 155.577-155.577l6.181-51.611z" fill="#27d1b3"/><path d="m0 256c0 141.389 114.611 256 256 256v-100.423c-85.926 0-155.577-69.651-155.577-155.577z" fill="#31a7fb"/><path d="m512 256c0-141.389-114.611-256-256-256v100.423c85.926 0 155.577 69.651 155.577 155.577z" fill="#fc9744"/><path d="m512 256h-41.588c0-127.238-92.799-232.78-214.412-252.642v-3.358c141.392 0 256 114.608 256 256z" fill="#fb8627"/><path d="m458.791 127.712c12.28 14.618 11.548 36.52-2.194 50.263-7.036 7.026-16.39 10.899-26.331 10.899-6.562 0-12.867-1.69-18.409-4.862l-12.187 12.187c-7.963-19.11-19.625-36.293-34.099-50.644l71.258-70.773c12.568 12.548 23.838 26.383 33.584 41.31z" fill="#fb8627"/><path d="m512 256c0 141.392-114.608 256-256 256v-3.358c121.613-19.862 214.412-125.404 214.412-252.642z" fill="#fb1466"/></g><g><path d="m362.966 94.196-132.959 132.958c-7.848 7.848-7.848 20.573 0 28.422l-21.081 21.081c-7.147 7.147-7.677 18.792-.788 26.189 7.232 7.765 19.395 7.928 26.834.489l21.397-21.397c7.849 7.849 20.573 7.849 28.422 0l132.959-132.958z" fill="#cbe5e7"/><path d="m393.68 173.05 24.07-24.07-54.784-54.784-24.07 24.07c18.261 18.261 36.522 36.523 54.784 54.784z" fill="#a9d3d8"/><path d="m417.749 148.985-132.955 132.955c-3.925 3.925-9.066 5.893-14.206 5.893-5.151 0-10.292-1.968-14.216-5.893l-21.397 21.397c-7.438 7.438-19.604 7.273-26.836-.495-3.194-3.42-4.79-7.757-4.873-12.125 4.924.124 9.879-1.69 13.64-5.45l17.266-17.266c2.148-2.147 5.483-2.597 8.094-1.045 3.149 1.871 6.698 2.808 10.253 2.808 5.141 0 10.281-1.968 14.206-5.893l132.955-132.955z" fill="#a9d3d8"/><path d="m442.023 139.882c-6.774-6.774-6.774-17.758 0-24.532l27.833-27.833c12.544-12.544 12.544-32.883 0-45.428-12.544-12.544-32.883-12.544-45.427 0l-27.833 27.833c-6.774 6.774-17.758 6.774-24.532 0-6.495-6.495-17.026-6.495-23.521 0-6.495 6.495-6.495 17.026 0 23.521l69.96 69.96c6.495 6.495 17.026 6.495 23.521 0 6.495-6.495 6.495-17.026-.001-23.521z" fill="#3f5959"/><path d="m442.02 115.349c-6.768 6.779-6.768 17.76 0 24.529 3.245 3.255 4.873 7.51 4.873 11.765s-1.628 8.509-4.873 11.765c-6.49 6.49-17.019 6.49-23.519 0l-20.964-20.964c6.5 6.49 17.029 6.49 23.519 0 3.255-3.245 4.873-7.51 4.873-11.765s-1.617-8.52-4.873-11.765c-6.768-6.768-6.768-17.75 0-24.529l27.836-27.836c8.767-8.757 11.404-21.325 7.922-32.379 4.77 1.494 9.261 4.141 13.042 7.922 12.548 12.537 12.548 32.883 0 45.421z" fill="#384848"/></g></g></svg>